<svg width="19" height="25" xmlns="http://www.w3.org/2000/svg" xmlns:xlink="http://www.w3.org/1999/xlink"><defs><path d="M13.642 8.928h6.568c.573 0 1.084.263 1.356.742s.235 1.052-.06 1.545l-7.69 12.775c-.276.459-.595.76-1.198.76-.654 0-1.26-.468-1.26-1.439v-7.24H4.79c-.573 0-1.083-.262-1.354-.739-.275-.48-.238-1.053.058-1.547l7.693-12.779c.068-.113.123-.192.211-.292.25-.28.575-.464.985-.464.654 0 1.26.468 1.26 1.439v7.24zm-.488 1.5a1.014 1.014 0 0 1-1.012-1.01v-7.09L4.78 14.558c-.025.009 2.331.014 7.067.014.555 0 1.011.454 1.011 1.01v7.09l7.362-12.23c.002-.01-2.353-.014-7.066-.014zm-.64-8.712zm7.748 8.695c.009.016.008.017-.033.017.022-.036.023-.034.033-.017z" id="a"/></defs><g transform="translate(-3)" fill="none" fill-rule="evenodd"><mask id="b" fill="#fff"><use xlink:href="#a"/></mask><use fill="#979797" fill-rule="nonzero" xlink:href="#a"/><g mask="url(#b)" fill="#FFF"><path d="M0 0h25v25H0z"/></g></g></svg>