<svg width="375" height="216" xmlns="http://www.w3.org/2000/svg"><g fill="none" fill-rule="evenodd"><path d="M0 0h375v216H0z" fill="#687089"/><g transform="translate(284 170)" fill="#FFF"><rect opacity=".31" width="88" height="42" rx="5"/><path d="M24.698 26v-5.219c0-1.187.93-2.047 2.211-2.047.266 0 .75.047.86.078V17.47a5.77 5.77 0 0 0-.672-.04c-1.117 0-2.086.579-2.336 1.4h-.125v-1.25h-1.281V26h1.343zm7.57.148c1.845 0 3.157-.89 3.548-2.328h-1.344c-.352.742-1.086 1.14-2.172 1.14-1.43 0-2.36-1.054-2.43-2.718v-.062h6.055v-.516c0-2.617-1.383-4.234-3.656-4.234-2.313 0-3.797 1.718-3.797 4.367 0 2.664 1.461 4.351 3.797 4.351zm2.243-5.054h-4.64c.101-1.492 1.039-2.477 2.382-2.477 1.336 0 2.227.985 2.258 2.477zm6.196 4.968c.265 0 .523-.03.789-.078v-1.132c-.25.023-.383.03-.625.03-.875 0-1.25-.421-1.25-1.413v-4.766h1.875v-1.125H39.62v-2.18h-1.344v2.18h-1.36v1.125h1.36v5.11c0 1.609.695 2.25 2.43 2.25zm5.297.086c1.289 0 2.187-.53 2.61-1.468h.124V26h1.282v-8.422h-1.344v4.985c0 1.476-.813 2.359-2.297 2.359-1.344 0-1.906-.703-1.906-2.219v-5.125h-1.344v5.453c0 1.992.984 3.117 2.875 3.117zm7.57-.148v-5.219c0-1.187.93-2.047 2.211-2.047.266 0 .75.047.86.078V17.47a5.77 5.77 0 0 0-.672-.04c-1.117 0-2.086.579-2.336 1.4h-.125v-1.25h-1.281V26h1.344zm5.93 0v-4.984c0-1.477.868-2.375 2.211-2.375 1.344 0 1.985.718 1.985 2.234V26h1.344v-5.453c0-2-1.055-3.117-2.946-3.117-1.289 0-2.11.547-2.531 1.476h-.125v-1.328h-1.281V26h1.344z" fill-rule="nonzero"/></g><g transform="translate(134 170)" fill="#FFF"><rect opacity=".31" width="144.5" height="42" rx="5"/><path d="M53.933 26.148c1.914 0 3.375-1.039 3.375-2.546 0-1.211-.766-1.899-2.352-2.282l-1.297-.312c-.992-.242-1.46-.602-1.46-1.18 0-.75.78-1.258 1.78-1.258 1.016 0 1.673.446 1.852 1.117h1.328c-.18-1.382-1.406-2.257-3.172-2.257-1.789 0-3.14 1.054-3.14 2.453 0 1.219.719 1.898 2.297 2.281l1.445.352c.898.218 1.336.609 1.336 1.187 0 .774-.813 1.313-1.945 1.313-1.078 0-1.75-.453-1.977-1.164H50.62c.149 1.398 1.438 2.296 3.313 2.296zm6.508 2.665v-4.079h.125c.46.891 1.43 1.414 2.633 1.414 2.14 0 3.539-1.726 3.539-4.359 0-2.648-1.39-4.36-3.54-4.36-1.148 0-2.156.587-2.695 1.555h-.125v-1.406h-1.28v11.235h1.343zm2.437-3.875c-1.515 0-2.476-1.22-2.476-3.149 0-1.937.96-3.148 2.484-3.148 1.54 0 2.461 1.18 2.461 3.148 0 1.969-.922 3.148-2.469 3.148zm7.993 1.21c1.125 0 2.047-.492 2.594-1.39h.125V26h1.28v-5.766c0-1.75-1.148-2.804-3.202-2.804-1.797 0-3.125.89-3.305 2.242h1.36c.187-.664.89-1.047 1.898-1.047 1.258 0 1.906.57 1.906 1.61V21l-2.43.148c-1.96.118-3.07.985-3.07 2.493 0 1.539 1.211 2.507 2.844 2.507zm.25-1.18c-.977 0-1.703-.5-1.703-1.359 0-.843.562-1.289 1.844-1.375l2.265-.148v.773c0 1.203-1.023 2.11-2.406 2.11zm9.36 1.18c2.023 0 3.28-1.14 3.523-2.687h-1.36c-.25.953-1.038 1.477-2.171 1.477-1.5 0-2.469-1.235-2.469-3.18 0-1.906.953-3.117 2.469-3.117 1.21 0 1.953.68 2.172 1.515h1.36c-.235-1.5-1.485-2.726-3.532-2.726-2.36 0-3.86 1.703-3.86 4.328 0 2.68 1.508 4.39 3.868 4.39zm8.562 0c1.844 0 3.157-.89 3.547-2.328h-1.343c-.352.742-1.086 1.14-2.172 1.14-1.43 0-2.36-1.054-2.43-2.718v-.062H92.7v-.516c0-2.617-1.383-4.234-3.657-4.234-2.312 0-3.796 1.718-3.796 4.367 0 2.664 1.46 4.351 3.796 4.351zm2.243-5.054h-4.641c.102-1.492 1.04-2.477 2.383-2.477 1.336 0 2.226.985 2.258 2.477z" fill-rule="nonzero"/></g><g transform="translate(96.5 170)"><rect fill="#FFF" fill-rule="nonzero" opacity=".31" width="32" height="42" rx="5"/><path d="M21 19.061l-10-.028v3.463A4.501 4.501 0 0 0 15.501 27h.998A4.501 4.501 0 0 0 21 22.499v-3.438z" stroke="#FFF"/><path d="M13.5 14.997v7.006a2.5 2.5 0 1 0 5 0v-7.006a2.5 2.5 0 1 0-5 0zm-1 0a3.5 3.5 0 0 1 7 0v7.006a3.5 3.5 0 0 1-7 0v-7.006zM15.5 27v3.938h1V27h-1z" fill="#FFF" fill-rule="nonzero"/></g><g transform="translate(49 170)" fill="#FFF"><rect opacity=".31" width="42" height="42" rx="5"/><path d="M14.094 28.268c.067-.076.211-.22.431-.412a9.178 9.178 0 0 1 1.33-.958A9.874 9.874 0 0 1 20.91 25.5c1.932-.013 3.666.535 5.177 1.458.522.32.98.661 1.367 1.002a7.173 7.173 0 0 1 .454.435l.747-.664a6.552 6.552 0 0 0-.54-.522c-.43-.378-.933-.754-1.507-1.104-1.66-1.015-3.573-1.62-5.705-1.605-2.108.015-3.968.59-5.56 1.54-.566.337-1.058.699-1.475 1.062-.254.221-.43.397-.524.505l.75.661z" fill-rule="nonzero"/><path d="M13.344 15.456c.095.107.27.283.524.505.417.363.909.725 1.474 1.062a10.868 10.868 0 0 0 5.56 1.54c2.133.014 4.045-.59 5.706-1.605.574-.35 1.077-.727 1.506-1.104.262-.23.443-.411.541-.522l-.747-.664c-.016.017-.051.055-.107.11a7.173 7.173 0 0 1-.347.325c-.387.34-.845.682-1.367 1.002-1.511.923-3.245 1.47-5.177 1.458a9.874 9.874 0 0 1-5.056-1.399 9.178 9.178 0 0 1-1.329-.957 5.077 5.077 0 0 1-.431-.413l-.75.662z" fill-rule="nonzero"/><path d="M20.5 12.5h1V31h-1z"/><path d="M11 21h20v1H11z"/><path d="M21.262 30.5c2.093 0 4.238-4.033 4.238-9s-2.145-9-4.238-9c-2.555 0-4.762 3.885-4.762 9s2.207 9 4.762 9zm0 1c-3.3 0-5.762-4.477-5.762-10s2.462-10 5.762-10c2.776 0 5.238 4.477 5.238 10s-2.462 10-5.238 10z" fill-rule="nonzero"/><path d="M21 30.5a9 9 0 1 0 0-18 9 9 0 0 0 0 18zm0 1c-5.523 0-10-4.477-10-10s4.477-10 10-10 10 4.477 10 10-4.477 10-10 10z" fill-rule="nonzero"/></g><g transform="translate(3 170)" fill="#FFF"><rect opacity=".31" width="40" height="42" rx="5"/><path d="M11.761 26V14.727h-1.398l-3 2.156v1.484l2.867-2.078h.125V26h1.406zm10.337 0v-1.266h-5.344v-.125l2.562-2.648c2.032-2.102 2.594-3.04 2.594-4.336 0-1.828-1.508-3.164-3.477-3.164-2.156 0-3.703 1.437-3.703 3.445h1.36c0-1.336.898-2.218 2.25-2.218 1.328 0 2.133.89 2.133 2.085 0 .993-.422 1.579-1.86 3.133l-3.812 4.125V26h7.296zm5.851.266c2.243 0 3.97-1.414 3.97-3.305 0-1.57-.97-2.563-2.43-2.797v-.125c1.156-.336 2-1.234 2.007-2.594.008-1.578-1.273-2.984-3.5-2.984-2.281 0-3.68 1.351-3.82 3.187h1.367c.117-1.265 1-1.96 2.36-1.96 1.359 0 2.164.859 2.164 1.914 0 1.171-.922 2-2.22 2h-1.335v1.203h1.398c1.586 0 2.563.812 2.563 2.117 0 1.265-1.055 2.117-2.54 2.117-1.452 0-2.468-.758-2.593-1.945h-1.36c.102 1.914 1.68 3.172 3.97 3.172z" fill-rule="nonzero"/></g><g transform="translate(330 118)" fill="#FFF"><rect opacity=".31" width="42" height="42" rx="5"/><path d="M18.414 14l-7 7 7 7h11.588c.542 0 .998-.471.998-1.067V15.067c0-.594-.456-1.067-.998-1.067H18.414zm11.588-1c1.103 0 1.998.93 1.998 2.067v11.866C32 28.075 31.103 29 30.002 29H18l-8-8 8-8h12.002zm-3.32 4.11L23.5 20.294l-3.182-3.182-.707.707L22.793 21l-3.182 3.182.707.707 3.182-3.182 3.182 3.182.707-.707L24.207 21l3.182-3.182-.707-.707z" fill-rule="nonzero"/></g><g transform="translate(3 118)"><rect fill="#FFF" opacity=".31" width="42" height="42" rx="5"/><path d="M24.645 22.359l4.411.007c.551 0 .679-.315.288-.706l-8.366-8.367a1 1 0 0 0-1.417.002l-8.332 8.333c-.396.395-.264.71.286.71l4.13.007v4.18a2 2 0 0 0 1.997 2h5.005a2 2 0 0 0 1.998-2v-4.166h0z" stroke="#FFF"/></g><g fill="#FFF"><g transform="translate(284 118)"><rect opacity=".31" width="32" height="42" rx="5"/><path d="M10.245 28v-7.502c0-1.707 1.224-3.077 2.807-3.077 1.528 0 2.527.92 2.527 2.358V28h1.932v-7.783c0-1.538 1.123-2.796 2.807-2.796 1.707 0 2.55.876 2.55 2.662V28h1.931v-8.367c0-2.538-1.381-3.953-3.852-3.953-1.673 0-3.054.842-3.706 2.123h-.18c-.561-1.258-1.707-2.123-3.346-2.123-1.617 0-2.83.775-3.38 2.123h-.18v-1.91H8.313V28h1.932z" fill-rule="nonzero"/></g><g transform="translate(246.5 118)"><rect opacity=".31" width="32" height="42" rx="5"/><path d="M13.04 28v-7.165c0-2.123 1.247-3.414 3.179-3.414 1.932 0 2.853 1.033 2.853 3.212V28h1.931v-7.839c0-2.875-1.516-4.48-4.234-4.48-1.853 0-3.032.785-3.638 2.122h-.18v-1.91h-1.842V28h1.932z" fill-rule="nonzero"/></g><g transform="translate(209 118)"><rect opacity=".31" width="32" height="42" rx="5"/><path d="M17.275 28.213c3.066 0 5.076-2.482 5.076-6.266 0-3.807-1.999-6.267-5.076-6.267-1.662 0-3.133.82-3.796 2.123h-.18v-6.716h-1.931V28h1.841v-1.932h.18c.764 1.348 2.201 2.145 3.886 2.145zm-.45-1.74c-2.2 0-3.57-1.73-3.57-4.526 0-2.797 1.37-4.526 3.57-4.526 2.213 0 3.527 1.696 3.527 4.526s-1.314 4.526-3.526 4.526z" fill-rule="nonzero"/></g><g transform="translate(171.5 118)"><rect opacity=".31" width="32" height="42" rx="5"/><path fill-rule="nonzero" d="M17.488 28l4.481-12.106h-2.066l-3.313 9.972h-.18l-3.313-9.972h-2.066L15.51 28z"/></g><g transform="translate(134 118)"><rect opacity=".31" width="32" height="42" rx="5"/><path d="M16.837 28.213c2.909 0 4.717-1.64 5.065-3.863h-1.954c-.36 1.37-1.494 2.123-3.122 2.123-2.157 0-3.55-1.775-3.55-4.571 0-2.74 1.371-4.481 3.55-4.481 1.74 0 2.807.977 3.122 2.179h1.954c-.337-2.157-2.134-3.92-5.076-3.92-3.392 0-5.548 2.448-5.548 6.222 0 3.852 2.167 6.311 5.559 6.311z" fill-rule="nonzero"/></g><g transform="translate(96.5 118)"><rect opacity=".31" width="32" height="42" rx="5"/><path fill-rule="nonzero" d="M13.513 28.034l2.875-4.571h.18l2.863 4.57h2.291l-4.166-6.131 4.11-5.975h-2.19l-2.841 4.504h-.18l-2.875-4.504h-2.302l4.189 6.053-4.144 6.054z"/></g><g transform="translate(59 118)"><rect opacity=".31" width="32" height="42" rx="5"/><path fill-rule="nonzero" d="M21.16 28v-1.617h-6.985v-.18l6.952-8.86v-1.45h-9.276v1.618h6.974v.18l-6.986 8.894V28z"/></g></g><g fill="#FFF"><g transform="translate(321.5 64)"><rect opacity=".31" width="32" height="42" rx="5"/><path fill-rule="nonzero" d="M16.966 28V11.087h-1.932V28z"/></g><g transform="translate(284 64)"><rect opacity=".31" width="32" height="42" rx="5"/><path fill-rule="nonzero" d="M14.12 28v-4.593l1.156-1.078L19.813 28h2.46l-5.56-6.918 5.211-5.188h-2.37l-5.255 5.29h-.18V11.086h-1.931V28z"/></g><g transform="translate(246.5 64)"><rect opacity=".31" width="32" height="42" rx="5"/><path d="M16.022 13.558c.742 0 1.348-.607 1.348-1.348 0-.741-.606-1.348-1.348-1.348-.74 0-1.347.607-1.347 1.348 0 .741.606 1.348 1.347 1.348zM13.26 32.155c2.538 0 3.706-1.067 3.706-3.56V15.894h-1.932v12.735c0 1.336-.449 1.875-1.82 1.875h-.291v1.651h.337z" fill-rule="nonzero"/></g><g transform="translate(209 64)"><rect opacity=".31" width="32" height="42" rx="5"/><path d="M13.035 28v-7.165c0-2.044 1.19-3.414 3.358-3.414 1.83 0 2.796 1.067 2.796 3.212V28h1.932v-7.839c0-2.841-1.617-4.48-4.178-4.48-1.853 0-3.122.785-3.728 2.122h-.18v-6.716h-1.931V28h1.931z" fill-rule="nonzero"/></g><g transform="translate(171.5 64)"><rect opacity=".31" width="32" height="42" rx="5"/><path d="M16.298 32.65c3.302 0 5.39-1.73 5.39-4.437v-12.32h-1.841v1.921h-.18c-.696-1.303-2.19-2.134-3.886-2.134-3.11 0-5.076 2.46-5.076 6.087 0 3.628 1.943 6.053 5.076 6.053 1.662 0 3.032-.752 3.796-2.089h.18v2.381c0 1.786-1.292 2.853-3.46 2.853-1.74 0-2.818-.64-3.031-1.629h-2.044c.292 2 2.156 3.313 5.076 3.313zm-.09-6.537c-2.246 0-3.504-1.707-3.504-4.346 0-2.64 1.258-4.346 3.504-4.346 2.235 0 3.594 1.707 3.594 4.346 0 2.64-1.348 4.346-3.594 4.346z" fill-rule="nonzero"/></g><g transform="translate(134 64)"><rect opacity=".31" width="32" height="42" rx="5"/><path d="M16.899 28V17.51h2.774v-1.616h-2.774v-1.292c0-1.325.584-1.999 1.976-1.999.348 0 .674.011.91.056v-1.572a6.783 6.783 0 0 0-1.303-.112c-2.302 0-3.515 1.156-3.515 3.57v1.349h-2.01v1.617h2.01V28h1.932z" fill-rule="nonzero"/></g><g transform="translate(96.5 64)"><rect opacity=".31" width="32" height="42" rx="5"/><path d="M15.736 28.213c1.674 0 3.111-.797 3.875-2.145h.18V28h1.841V11.087h-1.931v6.716h-.169c-.685-1.325-2.111-2.123-3.796-2.123-3.077 0-5.087 2.47-5.087 6.267 0 3.807 1.988 6.266 5.087 6.266zm.45-1.74c-2.213 0-3.538-1.696-3.538-4.526 0-2.82 1.336-4.526 3.538-4.526 2.19 0 3.56 1.752 3.56 4.526 0 2.796-1.36 4.526-3.56 4.526z" fill-rule="nonzero"/></g><g transform="translate(59.5 64)"><rect opacity=".31" width="32" height="42" rx="5"/><path d="M16.455 28.213c2.752 0 4.852-1.493 4.852-3.66 0-1.741-1.1-2.73-3.38-3.28l-1.865-.45c-1.426-.347-2.1-.864-2.1-1.695 0-1.078 1.123-1.808 2.56-1.808 1.46 0 2.404.64 2.662 1.606h1.91c-.259-1.988-2.022-3.246-4.56-3.246-2.572 0-4.515 1.516-4.515 3.527 0 1.751 1.033 2.729 3.302 3.279l2.077.505c1.292.315 1.92.876 1.92 1.707 0 1.112-1.167 1.887-2.796 1.887-1.55 0-2.515-.651-2.84-1.673h-1.989c.214 2.01 2.067 3.301 4.762 3.301z" fill-rule="nonzero"/></g><g transform="translate(22 64)"><rect opacity=".31" width="32" height="42" rx="5"/><path d="M15.343 28.213c1.617 0 2.943-.707 3.729-1.999h.18V28h1.841v-8.288c0-2.516-1.65-4.032-4.604-4.032-2.583 0-4.492 1.28-4.75 3.223h1.953c.27-.954 1.28-1.505 2.73-1.505 1.807 0 2.74.82 2.74 2.314v1.1l-3.493.214c-2.819.168-4.414 1.415-4.414 3.582 0 2.213 1.741 3.605 4.088 3.605zm.36-1.695c-1.404 0-2.449-.72-2.449-1.955 0-1.212.809-1.853 2.65-1.976l3.258-.213v1.111c0 1.73-1.472 3.033-3.46 3.033z" fill-rule="nonzero"/></g></g><g fill="#FFF"><g transform="translate(340 10)"><rect opacity=".31" width="32" height="42" rx="5"/><path d="M13.243 32.043v-5.862h.18c.662 1.28 2.055 2.032 3.785 2.032 3.077 0 5.087-2.482 5.087-6.266 0-3.807-2-6.267-5.087-6.267-1.651 0-3.1.842-3.875 2.235h-.18v-2.021h-1.841v16.149h1.931zm3.504-5.57c-2.179 0-3.56-1.752-3.56-4.526 0-2.785 1.381-4.526 3.571-4.526 2.213 0 3.538 1.696 3.538 4.526s-1.325 4.526-3.549 4.526z" fill-rule="nonzero"/></g><g transform="translate(302.5 10)"><rect opacity=".31" width="32" height="42" rx="5"/><path d="M16 28.213c3.448 0 5.582-2.38 5.582-6.266 0-3.897-2.134-6.267-5.582-6.267s-5.582 2.37-5.582 6.267c0 3.886 2.134 6.266 5.582 6.266zm0-1.74c-2.291 0-3.583-1.662-3.583-4.526 0-2.875 1.292-4.526 3.583-4.526 2.291 0 3.583 1.65 3.583 4.526 0 2.864-1.292 4.526-3.583 4.526z" fill-rule="nonzero"/></g><g transform="translate(265 10)"><rect opacity=".31" width="32" height="42" rx="5"/><path d="M16 13.558c.741 0 1.348-.607 1.348-1.348 0-.741-.607-1.348-1.348-1.348-.741 0-1.348.607-1.348 1.348 0 .741.607 1.348 1.348 1.348zM16.966 28V15.894h-1.932V28h1.932z" fill-rule="nonzero"/></g><g transform="translate(227.5 10)"><rect opacity=".31" width="32" height="42" rx="5"/><path d="M15.124 28.213c1.853 0 3.145-.763 3.751-2.11h.18V28h1.841V15.894h-1.931v7.165c0 2.122-1.168 3.391-3.302 3.391-1.932 0-2.74-1.01-2.74-3.19v-7.366H10.99v7.838c0 2.864 1.415 4.481 4.133 4.481z" fill-rule="nonzero"/></g><g transform="translate(190 10)"><rect opacity=".31" width="32" height="42" rx="5"/><path d="M13.108 32.38c2.145 0 3.111-.831 4.144-3.639l4.728-12.847h-2.055l-3.313 9.961h-.18l-3.324-9.961H11.02L15.5 28.01l-.224.719c-.505 1.46-1.112 1.988-2.224 1.988a4.65 4.65 0 0 1-.808-.056v1.65c.27.045.606.068.864.068z" fill-rule="nonzero"/></g><g transform="translate(152.5 10)"><rect opacity=".31" width="32" height="42" rx="5"/><path d="M18.443 28.09a6.47 6.47 0 0 0 1.134-.112v-1.629c-.36.034-.55.045-.898.045-1.258 0-1.797-.606-1.797-2.033v-6.85h2.695v-1.617h-2.695V12.76H14.95v3.134h-1.954v1.617h1.954v7.344c0 2.314 1 3.235 3.493 3.235z" fill-rule="nonzero"/></g><g transform="translate(115 10)"><rect opacity=".31" width="32" height="42" rx="5"/><path d="M15.871 28v-7.502c0-1.707 1.337-2.942 3.178-2.942.382 0 1.078.067 1.236.112v-1.932a8.295 8.295 0 0 0-.966-.056c-1.606 0-2.999.831-3.358 2.01h-.18v-1.796H13.94V28h1.932z" fill-rule="nonzero"/></g><g transform="translate(77.5 10)"><rect opacity=".31" width="32" height="42" rx="5"/><path d="M16.101 28.213c2.65 0 4.537-1.28 5.099-3.346h-1.932c-.505 1.067-1.561 1.64-3.122 1.64-2.055 0-3.392-1.517-3.493-3.909v-.09h8.704v-.74c0-3.763-1.988-6.088-5.256-6.088-3.324 0-5.458 2.47-5.458 6.278 0 3.83 2.1 6.255 5.458 6.255zm3.223-7.266h-6.67c.145-2.145 1.493-3.56 3.425-3.56 1.92 0 3.2 1.415 3.245 3.56z" fill-rule="nonzero"/></g><g transform="translate(40.5 10)"><rect opacity=".31" width="32" height="42" rx="5"/><path fill-rule="nonzero" d="M13.204 28l2.695-9.366h.18L18.785 28h1.965l3.392-12.106H22.2l-2.38 9.68h-.18l-2.707-9.68H15.08l-2.706 9.68h-.18l-2.381-9.68H7.858L11.25 28z"/></g><g transform="translate(3 10)"><rect opacity=".31" width="32" height="42" rx="5"/><path d="M21.688 32.043v-16.15h-1.864v2.022h-.18c-.718-1.359-2.223-2.235-3.874-2.235-3.066 0-5.065 2.47-5.065 6.267 0 3.818 1.977 6.266 5.065 6.266 1.707 0 3.01-.707 3.785-2.032h.18v5.862h1.953zm-5.48-5.57c-2.201 0-3.504-1.685-3.504-4.526 0-2.83 1.314-4.526 3.515-4.526 2.19 0 3.572 1.752 3.572 4.526 0 2.785-1.37 4.526-3.583 4.526z" fill-rule="nonzero"/></g></g></g></svg>